<?xml version="1.0" encoding="utf-8"?>
<!-- Generator: Adobe Illustrator 16.0.0, SVG Export Plug-In . SVG Version: 6.00 Build 0)  -->
<!DOCTYPE svg PUBLIC "-//W3C//DTD SVG 1.1//EN" "http://www.w3.org/Graphics/SVG/1.1/DTD/svg11.dtd">
<svg version="1.1" id="圖層_1" xmlns="http://www.w3.org/2000/svg" xmlns:xlink="http://www.w3.org/1999/xlink" x="0px" y="0px"
	 width="160px" height="60px" viewBox="0 0 160 60" enable-background="new 0 0 160 60" xml:space="preserve">
<rect display="none" fill-rule="evenodd" clip-rule="evenodd" fill="#595649" width="160" height="60"/>
<g>
	<path fill="#FFFFFF" stroke="#FFFFFF" stroke-width="0.5669" stroke-linejoin="round" stroke-miterlimit="5" d="M27.162,6.065
		c2.004,0.065,3.899,0.164,5.686,0.294c-0.022-0.85-0.076-1.765-0.163-2.745c0.043-0.544,0.337-0.838,0.882-0.882
		c0.544,0.087,0.817,0.403,0.817,0.948c0.086,0.85,0.141,1.786,0.163,2.81c2.244,0.196,3.889,0.403,4.935,0.621
		c0.719,0.131,1.078,0.458,1.078,0.98c0,0.545-0.272,0.817-0.817,0.817c-0.218,0-0.763-0.098-1.634-0.294
		c-1.068-0.174-2.266-0.337-3.595-0.49c-0.044,1.002-0.196,2.059-0.458,3.169c-0.24,1.177-0.566,1.765-0.98,1.765
		c-0.567,0-0.85-0.305-0.85-0.915c0-0.239,0.065-0.675,0.196-1.307c0.262-0.915,0.403-1.874,0.425-2.876
		c-1.786-0.13-3.638-0.217-5.555-0.261c-2.789,0-5.773,0.087-8.954,0.261c-0.218,0.022-0.447,0.044-0.686,0.065
		c0.086,0.894,0.261,1.852,0.522,2.875c0.24,0.719,0.359,1.221,0.359,1.503c-0.043,0.501-0.294,0.751-0.751,0.751
		c-0.523,0-0.904-0.512-1.144-1.536c-0.283-0.915-0.479-2.069-0.588-3.464c-0.653,0.065-1.264,0.142-1.83,0.229
		c-1.046,0.175-2.026,0.36-2.941,0.556c-0.654,0-0.98-0.305-0.98-0.915c0-0.436,0.37-0.729,1.111-0.882
		c0.958-0.217,2.483-0.425,4.575-0.621c0.021-1.242,0.098-2.2,0.229-2.875c0-0.544,0.283-0.838,0.85-0.882
		c0.588,0.087,0.882,0.381,0.882,0.882c-0.153,0.828-0.262,1.743-0.327,2.745C20.757,6.174,23.938,6.065,27.162,6.065z
		 M34.089,14.594c0.501,0.109,0.752,0.403,0.752,0.882c-0.24,2.222-0.894,4.303-1.961,6.242c-1.307,2.44-2.789,4.368-4.444,5.784
		c-0.567,0.523-1.111,0.969-1.634,1.34c2.549,1.438,5.054,2.157,7.516,2.157c1.242,0,2.276-0.164,3.104-0.49
		c0.588,0.043,0.882,0.403,0.882,1.078c0,0.719-1.231,1.079-3.692,1.079c-3.377,0-6.535-0.894-9.476-2.68
		c-2.919,1.786-5.98,2.68-9.182,2.68c-2.462,0-3.715-0.436-3.758-1.307c0-0.545,0.25-0.861,0.751-0.948
		c1.067,0.392,2.135,0.588,3.202,0.588c2.396,0,4.836-0.708,7.32-2.124c-0.588-0.436-1.155-0.872-1.699-1.307
		c-1.678-1.416-3.203-3.333-4.575-5.751c-1.264-2.527-1.917-4.618-1.961-6.274c0-0.436,0.229-0.708,0.687-0.817
		c0.544,0.044,0.838,0.294,0.882,0.751c0.457,2.462,1.165,4.456,2.124,5.98c1.242,2.005,2.843,3.791,4.804,5.359
		c0.458,0.393,0.926,0.73,1.405,1.013c0.458-0.305,0.925-0.653,1.405-1.045c1.896-1.569,3.387-3.322,4.477-5.261
		c1.154-2.047,1.884-4.106,2.189-6.176C33.25,14.888,33.544,14.638,34.089,14.594z"/>
	<path fill="#FFFFFF" stroke="#FFFFFF" stroke-width="0.5669" stroke-linejoin="round" stroke-miterlimit="5" d="M50.767,21.554
		c0.501,0.044,0.752,0.294,0.752,0.751c0,0.218-0.229,0.784-0.687,1.699c-0.392,0.959-0.686,1.982-0.882,3.072
		c-0.218,1.242-0.349,2.374-0.392,3.398c0,0.609-0.24,0.915-0.719,0.915c-0.588,0-0.882-0.327-0.882-0.98
		c0-2.135,0.37-4.368,1.111-6.699C49.591,22.272,50.157,21.554,50.767,21.554z M52.793,4.66c0.458,0.087,0.708,0.338,0.752,0.751
		c0,0.327-0.164,0.621-0.49,0.882c-0.458,0.501-0.882,1.068-1.274,1.699c-0.61,1.155-0.915,2.43-0.915,3.823
		c0.065,2.091,0.871,3.736,2.418,4.934c1.59,1.177,4.02,1.765,7.287,1.765c1.96,0,3.616-0.185,4.967-0.555
		c0.806-0.152,1.492-0.36,2.059-0.621c0.436-0.217,0.817-0.327,1.144-0.327c0.435,0.109,0.653,0.371,0.653,0.784
		c0,0.414-0.164,0.73-0.49,0.948c-0.85,0.414-1.809,0.719-2.875,0.915c-1.417,0.327-3.159,0.49-5.229,0.49
		c-4.096,0-6.993-0.708-8.692-2.124c-1.917-1.438-2.875-3.529-2.875-6.274c0-1.96,0.512-3.747,1.536-5.359
		C51.529,5.237,52.205,4.66,52.793,4.66z M64.197,2.863c3.899,0,6.764,0.686,8.594,2.059c1.917,1.329,2.875,3.202,2.875,5.62
		c0,1.83-0.6,3.475-1.797,4.934c-1.045,1.286-1.906,1.928-2.582,1.928c-0.522,0-0.784-0.315-0.784-0.948
		c0-0.217,0.229-0.501,0.687-0.85c0.566-0.436,1.089-0.958,1.568-1.568c0.784-1.046,1.176-2.255,1.176-3.627
		c0-1.743-0.915-3.203-2.745-4.379c-1.417-0.958-3.856-1.438-7.32-1.438c-1.787,0-3.845,0.229-6.176,0.687
		c-0.676,0.152-1.22,0.305-1.634,0.458c-0.371,0.109-0.687,0.163-0.948,0.163c-0.327,0-0.567-0.239-0.719-0.719
		c0-0.566,0.327-0.958,0.98-1.176c0.741-0.218,1.677-0.414,2.811-0.588C60.559,3.048,62.563,2.863,64.197,2.863z M61.354,10.378
		c0.043-1.177,0.185-2.298,0.425-3.366c0.131-0.588,0.446-0.882,0.948-0.882c0.479,0,0.719,0.25,0.719,0.751
		c-0.24,1.395-0.371,2.56-0.392,3.497c1.765,0.022,3.583,0.152,5.457,0.392c1.002,0.087,1.503,0.425,1.503,1.013
		c-0.043,0.436-0.294,0.676-0.751,0.719c-0.414,0-1.198-0.076-2.353-0.229c-1.329-0.131-2.614-0.207-3.856-0.229
		c0.021,0.61,0.076,1.209,0.164,1.797c0.086,0.545,0.217,1.079,0.392,1.602c0.108,0.305,0.163,0.555,0.163,0.751
		c0,0.414-0.272,0.621-0.817,0.621c-0.479,0-0.872-0.675-1.176-2.026c-0.175-0.937-0.305-1.851-0.392-2.745
		c-0.675,0.022-1.373,0.044-2.091,0.065c-1.002,0.109-2.048,0.262-3.137,0.458c-0.544,0-0.849-0.229-0.915-0.686
		c0-0.653,0.479-1.024,1.438-1.111C58.032,10.553,59.59,10.422,61.354,10.378z M56.78,22.469c0.588,0,0.882,0.305,0.882,0.915
		c-0.371,1.372-0.556,2.516-0.556,3.431c0.305,2.854,2.364,4.281,6.176,4.281c1.895,0,3.387-0.25,4.477-0.751
		c0.261-0.109,0.523-0.218,0.784-0.327c0.37-0.196,0.642-0.294,0.817-0.294c0.544,0,0.817,0.294,0.817,0.882
		c0,0.458-0.447,0.817-1.34,1.079c-1.372,0.653-3.29,0.98-5.751,0.98c-2.418,0-4.237-0.501-5.457-1.503
		c-1.438-1.111-2.157-2.56-2.157-4.346C55.625,23.917,56.061,22.469,56.78,22.469z M64.688,22.371
		c1.546,0.131,2.32,0.894,2.32,2.288c0,1.547-0.752,2.32-2.255,2.32c-1.417-0.043-2.211-0.817-2.385-2.32
		C62.454,23.264,63.228,22.501,64.688,22.371z M64.753,25.377c0.501,0,0.751-0.25,0.751-0.751c0-0.458-0.272-0.73-0.817-0.817
		c-0.501,0.087-0.784,0.359-0.85,0.817C63.903,25.127,64.208,25.377,64.753,25.377z M72.138,22.469c0.414,0,0.85,0.305,1.307,0.915
		c0.566,0.653,1.111,1.525,1.634,2.614c0.871,1.83,1.307,3.29,1.307,4.379c0,0.479-0.229,0.719-0.686,0.719
		c-0.414,0-0.686-0.294-0.817-0.882c-0.588-2.418-1.515-4.378-2.777-5.882c-0.393-0.5-0.588-0.903-0.588-1.209
		C71.517,22.774,71.724,22.556,72.138,22.469z"/>
	<path fill="#FFFFFF" stroke="#FFFFFF" stroke-width="0.5669" stroke-linejoin="round" stroke-miterlimit="5" d="M86.79,9.398
		c0.544,0.131,0.817,0.447,0.817,0.948c0,0.196-0.087,0.544-0.261,1.045c-0.175,0.763-0.305,1.623-0.392,2.582
		c-0.131,1.699-0.196,4.084-0.196,7.156c0,2.026,0.087,3.965,0.262,5.816c0.196,1.852,0.458,3.616,0.784,5.294
		c0,0.522-0.24,0.784-0.719,0.784c-0.501,0-0.839-0.306-1.013-0.915c-0.676-2.658-1.024-6.405-1.046-11.241
		c0-2.811,0.065-5.119,0.196-6.928c0.109-1.546,0.294-2.788,0.556-3.725C86.039,9.67,86.376,9.398,86.79,9.398z M101.364,6.196
		c2.157,0.044,4.193,0.13,6.111,0.261c2.374,0.153,4.084,0.316,5.13,0.49c0.697,0.13,1.045,0.458,1.045,0.98
		c0,0.523-0.261,0.785-0.784,0.785c-0.218,0-0.719-0.065-1.503-0.196c-1.177-0.174-2.549-0.327-4.118-0.458
		c-1.83-0.131-3.747-0.207-5.751-0.229c-2.679,0-5.534,0.055-8.561,0.163c-1.46,0.087-2.767,0.196-3.921,0.327
		c-1.002,0.13-1.939,0.261-2.81,0.392c-0.676,0-1.013-0.294-1.013-0.882c0-0.458,0.381-0.752,1.144-0.882
		c1.024-0.152,2.789-0.315,5.294-0.49c1.808-0.109,3.638-0.174,5.49-0.196c-0.218-0.37-0.36-0.784-0.425-1.242
		c0.086-1.416,0.85-2.189,2.287-2.32c1.59,0.131,2.385,0.904,2.385,2.32c0,0.458-0.076,0.85-0.229,1.177H101.364z M102.41,23.253
		c1.83,0.022,3.551,0.098,5.163,0.229c1.96,0.175,3.376,0.338,4.248,0.49c0.675,0.153,1.013,0.469,1.013,0.948
		c0,0.523-0.261,0.784-0.784,0.784c-0.175,0-0.588-0.065-1.242-0.196c-0.98-0.196-2.124-0.349-3.431-0.458
		c-1.547-0.131-3.148-0.218-4.803-0.262h-0.229c0.174,0.632,0.294,1.264,0.359,1.896h0.262c1.895,0.065,3.681,0.196,5.359,0.392
		c2.047,0.24,3.529,0.479,4.444,0.719c0.675,0.131,1.013,0.446,1.013,0.948c0,0.501-0.25,0.751-0.751,0.751
		c-0.196,0-0.643-0.087-1.34-0.261c-1.024-0.24-2.211-0.447-3.562-0.621c-1.612-0.174-3.29-0.283-5.032-0.327h-0.294v0.425
		c0,2.897-1.089,4.346-3.268,4.346c-1.264,0-2.288-0.142-3.072-0.425c-1.111-0.371-1.667-0.763-1.667-1.177
		c0-0.588,0.272-0.882,0.817-0.882c0.262,0,0.643,0.141,1.144,0.425c0.588,0.283,1.449,0.425,2.582,0.425
		c1.198-0.022,1.808-0.926,1.83-2.712v-0.425c-1.96,0.043-3.987,0.12-6.078,0.229c-1.329,0.109-2.538,0.24-3.627,0.393
		c-0.937,0.152-1.809,0.305-2.614,0.457c-0.632,0-0.947-0.283-0.947-0.85c0-0.414,0.359-0.686,1.078-0.817
		c0.958-0.217,2.592-0.436,4.901-0.653c2.396-0.196,4.782-0.315,7.156-0.359c-0.087-0.675-0.207-1.296-0.359-1.863
		c-1.547,0.022-3.202,0.098-4.967,0.229c-1.155,0.109-2.211,0.24-3.17,0.392c-0.784,0.174-1.525,0.349-2.222,0.523
		c-0.632,0-0.948-0.294-0.948-0.882c0-0.414,0.359-0.687,1.078-0.817c0.828-0.24,2.233-0.468,4.215-0.687
		c1.83-0.152,3.66-0.25,5.49-0.294c-0.13-0.283-0.272-0.566-0.425-0.85c-0.24-0.436-0.371-0.762-0.392-0.98
		c-0.632,0.044-1.264,0.087-1.895,0.131c-1.939,0.175-3.758,0.403-5.457,0.686c-0.567,0-0.85-0.25-0.85-0.751
		c0-0.37,0.261-0.653,0.784-0.85c1.655-0.305,3.453-0.523,5.392-0.653c2.222-0.196,4.455-0.305,6.699-0.327
		c1.612,0,2.908,0.033,3.889,0.098c0.609,0.044,0.926,0.316,0.948,0.817c-0.022,0.523-0.306,0.784-0.85,0.784
		c-1.438-0.108-2.843-0.163-4.215-0.163c-0.937,0.022-1.863,0.065-2.778,0.13v0.033c0.37,0.567,0.675,1.188,0.915,1.863H102.41z
		 M93.456,10.542c0.021-0.458,0.043-0.882,0.065-1.274c0.131-0.631,0.425-0.947,0.882-0.947c0.544,0.043,0.817,0.338,0.817,0.882
		c-0.044,0.479-0.087,0.915-0.131,1.307c0.436,0.022,0.915,0.055,1.438,0.098c0.653,0.065,1.296,0.153,1.928,0.261
		c0.915,0.175,1.373,0.523,1.373,1.046c0,0.479-0.261,0.719-0.784,0.719c-1.286-0.327-2.647-0.501-4.084-0.523
		c-0.044,0.785-0.065,1.449-0.065,1.994c0,0.98,0.25,2.495,0.751,4.542c0,0.588-0.283,0.882-0.85,0.882
		c-0.436,0-0.751-0.436-0.948-1.307c-0.327-1.416-0.49-2.897-0.49-4.444c0-0.544,0.011-1.089,0.032-1.634
		c-1.307,0.044-2.538,0.175-3.692,0.392c-0.479,0-0.751-0.229-0.817-0.686c0-0.501,0.305-0.828,0.915-0.98
		c0.653-0.13,1.514-0.229,2.582-0.294C92.792,10.553,93.151,10.542,93.456,10.542z M91.071,13.581
		c0.523,0.022,0.784,0.272,0.784,0.751c0,0.109-0.098,0.349-0.294,0.719c-0.153,0.415-0.284,0.861-0.392,1.34
		c-0.087,0.567-0.142,1.068-0.164,1.503c0,0.588-0.229,0.882-0.686,0.882c-0.588,0-0.882-0.316-0.882-0.948
		c0-1.024,0.229-2.091,0.686-3.202C90.428,13.929,90.744,13.581,91.071,13.581z M97.868,13.613c0.544,0.044,0.838,0.349,0.882,0.915
		c0.086,0.371,0.13,0.806,0.13,1.307c0,0.522-0.022,0.937-0.065,1.242c0,0.697-0.294,1.045-0.882,1.045
		c-0.501-0.021-0.752-0.327-0.752-0.915c0.087-0.348,0.131-0.795,0.131-1.339c-0.044-0.566-0.098-1.035-0.163-1.405
		C97.149,13.94,97.388,13.657,97.868,13.613z M99.044,5.706c0.544,0,0.817-0.25,0.817-0.751c0-0.458-0.294-0.73-0.882-0.817
		c-0.479,0.087-0.751,0.36-0.817,0.817C98.227,5.455,98.521,5.706,99.044,5.706z M105.383,10.051
		c-0.153-0.414-0.229-0.686-0.229-0.817c0-0.5,0.262-0.751,0.785-0.751c0.588,0,0.98,0.512,1.176,1.536
		c0.653,0.022,1.351,0.065,2.091,0.131c0.806,0.087,1.612,0.196,2.418,0.327c0.937,0.153,1.405,0.479,1.405,0.98
		c0,0.501-0.262,0.751-0.784,0.751c-1.525-0.305-3.126-0.468-4.804-0.49c0.131,0.937,0.196,2.016,0.196,3.235
		c0,2.81-0.306,4.237-0.915,4.281c-0.698,0-1.046-0.262-1.046-0.785c0.218-0.98,0.327-2.287,0.327-3.921
		c0-1.198-0.054-2.135-0.163-2.811c-1.503,0.044-2.865,0.229-4.084,0.556c-0.501,0-0.785-0.239-0.85-0.719
		c0-0.501,0.327-0.828,0.98-0.98c0.632-0.174,1.492-0.315,2.582-0.425C104.773,10.106,105.078,10.073,105.383,10.051z
		 M103.39,13.254c0.5,0.044,0.751,0.283,0.751,0.719c0,0.109-0.109,0.349-0.327,0.719c-0.153,0.392-0.273,0.828-0.359,1.307
		c-0.087,0.501-0.142,0.97-0.164,1.405c0,0.567-0.218,0.85-0.654,0.85c-0.61,0-0.915-0.305-0.915-0.915
		c0-0.98,0.217-2.015,0.653-3.104C102.704,13.581,103.041,13.254,103.39,13.254z M110.742,13.09c0.479,0.022,0.719,0.24,0.719,0.654
		c0,0.305-0.065,0.555-0.196,0.751c-0.196,0.349-0.294,0.675-0.294,0.98c0.065,0.763,0.403,1.144,1.013,1.144
		c0.218,0,0.414-0.043,0.588-0.131c0.239-0.131,0.425-0.196,0.555-0.196c0.479,0.043,0.741,0.272,0.785,0.686
		c0,0.436-0.186,0.73-0.556,0.882c-0.283,0.218-0.719,0.327-1.307,0.327c-0.85,0-1.514-0.25-1.993-0.751
		c-0.458-0.414-0.708-1.067-0.751-1.961c0-0.588,0.152-1.154,0.457-1.699C110.045,13.319,110.372,13.09,110.742,13.09z"/>
	<path fill="#FFFFFF" stroke="#FFFFFF" stroke-width="0.5669" stroke-linejoin="round" stroke-miterlimit="5" d="M135.034,4.66
		c-2.353,0.022-4.423,0.109-6.208,0.262c-1.874,0.218-3.617,0.49-5.229,0.817c-0.784,0.24-1.264,0.359-1.438,0.359
		c-0.458,0-0.73-0.262-0.817-0.784c0-0.544,0.381-0.904,1.144-1.079c1.438-0.327,3.246-0.621,5.424-0.882
		c2.2-0.239,4.782-0.381,7.744-0.425c6.187,0.044,10.653,0.414,13.398,1.111c0.85,0.218,1.274,0.599,1.274,1.144
		c0,0.458-0.229,0.719-0.687,0.784c-0.218,0-0.675-0.098-1.373-0.294c-1.089-0.305-2.734-0.556-4.934-0.751
		c-2.091-0.152-4.227-0.229-6.405-0.229c-0.022,0.305-0.12,0.763-0.294,1.373c-0.218,1.002-0.381,2.113-0.49,3.333
		c-0.022,0.349-0.044,0.741-0.065,1.176c0.61-0.021,1.231-0.043,1.863-0.065c3.747,0.109,6.655,0.959,8.725,2.549
		c2.396,1.852,3.595,4.085,3.595,6.699c0,3.312-0.381,6.067-1.144,8.268c-0.457,1.503-0.969,2.646-1.536,3.431
		c-0.436,0.785-0.861,1.177-1.274,1.177c-0.567,0-0.85-0.294-0.85-0.882c0-0.24,0.305-0.806,0.915-1.699
		c0.588-1.068,1.067-2.298,1.438-3.692c0.5-1.896,0.751-4.041,0.751-6.438c0-2.091-1.024-3.976-3.072-5.653
		c-2.07-1.394-4.564-2.091-7.483-2.091c-0.654,0-1.329,0.022-2.026,0.065c-0.065,1.852-0.098,4.042-0.098,6.568
		c0,2.309,0.109,4.542,0.327,6.699c0.218,2.135,0.523,4.183,0.915,6.143c0,0.501-0.24,0.751-0.719,0.751
		c-0.501,0-0.839-0.294-1.013-0.882c-0.784-3.071-1.198-7.396-1.242-12.973c0-2.353,0.033-4.411,0.098-6.176
		c-0.806,0.065-1.601,0.142-2.385,0.229c-1.199,0.175-2.288,0.403-3.268,0.687c-1.002,0.349-1.667,0.522-1.993,0.522
		c-0.458,0-0.686-0.327-0.686-0.98c0-0.523,1.263-1.057,3.791-1.601c1.416-0.262,2.952-0.446,4.607-0.556
		c0.021-0.458,0.043-0.871,0.065-1.242C134.555,7.449,134.773,5.858,135.034,4.66z M129.479,5.967
		c0.654,0.044,0.98,0.294,0.98,0.751c0,0.588-0.294,0.882-0.882,0.882c-1.068,0.262-2.081,0.654-3.039,1.176
		c-0.458,0.262-0.926,0.556-1.405,0.882c-0.588,0.501-1.024,0.915-1.307,1.242c-0.306,0.545-0.643,0.817-1.013,0.817
		c-0.501,0-0.795-0.283-0.882-0.85c0-0.392,0.174-0.784,0.523-1.176c0.37-0.348,0.893-0.795,1.568-1.34
		c0.915-0.653,1.961-1.23,3.137-1.731C128.27,6.185,129.043,5.967,129.479,5.967z M123.891,13.09
		c0.523,0.044,0.785,0.294,0.785,0.751c0,0.349-0.186,1.264-0.556,2.745c-0.218,1.612-0.327,2.963-0.327,4.052
		c0,4.771,0.425,8.562,1.274,11.372c0,0.632-0.229,0.948-0.687,0.948c-0.544,0-0.904-0.338-1.078-1.013
		c-0.349-1.155-0.632-2.756-0.85-4.803c-0.196-2.439-0.294-4.651-0.294-6.633c0.108-2.789,0.414-4.967,0.915-6.536
		C123.161,13.428,123.434,13.134,123.891,13.09z M126.179,15.999c0.588,0,1.274,0.218,2.059,0.654
		c0.283,0.152,0.544,0.294,0.784,0.425c1.046-0.654,1.994-1.046,2.843-1.177c0.522,0.044,0.784,0.306,0.784,0.785
		c0,0.436-0.251,0.741-0.752,0.915c-0.457,0.175-0.915,0.371-1.372,0.588l0.065,0.033c0.697,0.61,1.22,1.155,1.568,1.634
		c0.37,0.501,0.555,0.937,0.555,1.307c0,0.501-0.272,0.751-0.817,0.751c-0.305,0-0.621-0.25-0.947-0.751
		c-0.545-0.719-1.209-1.373-1.994-1.96c-0.522,0.479-1.057,0.991-1.601,1.536c-0.371,0.61-0.763,0.915-1.176,0.915
		c-0.479,0-0.719-0.283-0.719-0.85c0-0.458,0.49-1.165,1.47-2.124c0.196-0.196,0.37-0.359,0.523-0.49
		c-0.371-0.196-0.751-0.381-1.144-0.556c-0.588-0.174-0.882-0.468-0.882-0.882C125.427,16.358,125.677,16.108,126.179,15.999z
		 M126.44,23.612c0.588,0,1.274,0.218,2.059,0.654c0.283,0.152,0.533,0.305,0.751,0.457l0.033-0.032
		c1.045-0.654,1.982-1.046,2.81-1.177c0.544,0.044,0.817,0.306,0.817,0.784c0,0.436-0.25,0.741-0.751,0.915
		c-0.458,0.196-0.904,0.392-1.34,0.588l0.033,0.033c0.697,0.61,1.23,1.155,1.601,1.634c0.327,0.479,0.49,0.926,0.49,1.34
		c0,0.458-0.261,0.686-0.784,0.686c-0.306,0-0.632-0.229-0.98-0.686c-0.545-0.763-1.198-1.427-1.96-1.994
		c-0.523,0.479-1.057,0.992-1.601,1.536c-0.392,0.609-0.785,0.915-1.177,0.915c-0.479,0-0.719-0.273-0.719-0.817
		c0-0.501,0.49-1.23,1.471-2.189c0.196-0.174,0.37-0.315,0.522-0.425c-0.392-0.218-0.784-0.425-1.176-0.621
		c-0.588-0.152-0.882-0.425-0.882-0.817C125.656,23.983,125.917,23.722,126.44,23.612z M138.465,15.019
		c0.588,0,1.263,0.218,2.026,0.653c0.327,0.175,0.631,0.349,0.915,0.523c1.023-0.61,1.938-0.98,2.745-1.111
		c0.523,0.044,0.784,0.306,0.784,0.785c0,0.436-0.24,0.741-0.719,0.915c-0.458,0.153-0.882,0.338-1.274,0.556
		c0.675,0.567,1.176,1.089,1.503,1.568c0.37,0.458,0.555,0.894,0.555,1.307c0,0.479-0.272,0.719-0.817,0.719
		c-0.283,0-0.61-0.239-0.98-0.719c-0.501-0.719-1.123-1.361-1.863-1.928c-0.588,0.501-1.144,1.045-1.667,1.634
		c-0.414,0.61-0.817,0.915-1.209,0.915c-0.479,0-0.719-0.272-0.719-0.817c0-0.501,0.479-1.23,1.438-2.189
		c0.261-0.196,0.49-0.37,0.686-0.523c-0.436-0.261-0.861-0.49-1.274-0.686c-0.61-0.152-0.915-0.425-0.915-0.817
		C137.681,15.389,137.942,15.127,138.465,15.019z M138.988,23.286c0.588,0,1.274,0.218,2.059,0.653
		c0.261,0.153,0.511,0.306,0.751,0.458l0.033-0.033c1.045-0.653,1.982-1.045,2.81-1.176c0.544,0.044,0.817,0.294,0.817,0.751
		s-0.25,0.774-0.751,0.948c-0.458,0.175-0.915,0.359-1.373,0.556l0.065,0.098c0.697,0.588,1.23,1.133,1.601,1.634
		c0.327,0.458,0.49,0.893,0.49,1.307c0,0.479-0.261,0.719-0.784,0.719c-0.305,0-0.632-0.24-0.98-0.719
		c-0.544-0.741-1.198-1.405-1.96-1.994c-0.523,0.479-1.057,0.992-1.601,1.536c-0.392,0.609-0.784,0.915-1.176,0.915
		c-0.479,0-0.719-0.283-0.719-0.85c0-0.479,0.49-1.198,1.471-2.156c0.196-0.174,0.37-0.316,0.523-0.425
		c-0.393-0.24-0.785-0.446-1.177-0.621c-0.588-0.152-0.882-0.436-0.882-0.85C138.204,23.645,138.465,23.395,138.988,23.286z
		 M142.55,6.196c0.654,0,1.405,0.207,2.255,0.621c0.936,0.436,1.83,0.948,2.679,1.536c0.784,0.588,1.383,1.111,1.797,1.569
		c0.37,0.479,0.556,0.904,0.556,1.274c0,0.522-0.284,0.784-0.85,0.784c-0.327,0-0.687-0.24-1.079-0.719
		c-1.176-1.351-2.919-2.462-5.228-3.333c-0.654-0.174-0.98-0.479-0.98-0.915C141.7,6.599,141.983,6.326,142.55,6.196z"/>
</g>
<g>
	<path fill="#FFFFFF" stroke="#FFFFFF" stroke-width="0.5669" stroke-linejoin="round" stroke-miterlimit="5" d="M18.811,50.389
		c0.181,0,0.353,0.005,0.516,0.013c-0.027-0.788-0.172-1.632-0.434-2.533c-0.073-0.009-0.145-0.013-0.217-0.013
		c-1.067,0-2.216,0.035-3.446,0.105c-0.57,0.044-1.09,0.096-1.561,0.157c-0.407,0.062-0.787,0.123-1.14,0.184
		c-0.28,0-0.42-0.123-0.42-0.368c0-0.192,0.158-0.315,0.475-0.368c0.425-0.079,1.135-0.166,2.13-0.262
		c1.275-0.087,2.578-0.131,3.908-0.131h0.068c-0.154-0.499-0.371-1.028-0.651-1.588c-0.28-0.551-0.434-0.893-0.461-1.024
		c-0.633,0.053-1.23,0.114-1.791,0.184c-1.203,0.149-2.316,0.35-3.338,0.604c-0.245,0-0.367-0.118-0.367-0.354
		c0-0.175,0.14-0.297,0.421-0.368c0.932-0.262,2.175-0.485,3.731-0.669c1.384-0.14,2.628-0.21,3.731-0.21
		c1.077,0,2.044,0.026,2.904,0.079c0.453,0.018,0.679,0.157,0.679,0.42c0,0.236-0.108,0.354-0.326,0.354
		c-0.244,0-0.692-0.04-1.343-0.118c-0.597-0.035-1.258-0.053-1.981-0.053c-0.524,0.018-1.027,0.04-1.506,0.066
		c0.452,0.936,0.814,1.837,1.085,2.704c0.57,0.018,1.108,0.044,1.615,0.079c0.95,0.079,1.633,0.153,2.049,0.223
		c0.308,0.052,0.461,0.188,0.461,0.407s-0.118,0.328-0.353,0.328c-0.082,0-0.281-0.026-0.597-0.079
		c-0.479-0.07-1.036-0.131-1.669-0.184c-0.425-0.026-0.86-0.048-1.303-0.066c0.253,0.858,0.398,1.698,0.434,2.52
		c0.47,0.018,0.918,0.04,1.343,0.065c1.022,0.062,1.759,0.127,2.212,0.197c0.308,0.062,0.461,0.202,0.461,0.42
		c0,0.228-0.113,0.341-0.339,0.341c-0.1,0-0.317-0.026-0.651-0.079c-0.507-0.07-1.104-0.135-1.791-0.197
		c-0.407-0.026-0.819-0.043-1.235-0.053c-0.072,2.756-0.887,4.134-2.442,4.134c-0.57,0-1.027-0.092-1.371-0.275
		c-0.525-0.219-0.787-0.459-0.787-0.722c0-0.149,0.1-0.25,0.299-0.302c0.153,0,0.28,0.04,0.38,0.118
		c0.145,0.123,0.312,0.219,0.502,0.289c0.271,0.096,0.588,0.144,0.95,0.144c1.077,0,1.646-1.137,1.71-3.412
		c-0.172-0.009-0.335-0.013-0.489-0.013c-1.149,0-2.384,0.031-3.704,0.092c-0.615,0.044-1.176,0.101-1.683,0.17
		c-0.435,0.062-0.837,0.127-1.208,0.197c-0.29,0-0.434-0.131-0.434-0.394c0-0.184,0.163-0.302,0.489-0.354
		c0.452-0.096,1.212-0.188,2.279-0.276C15.979,50.433,17.382,50.389,18.811,50.389z"/>
	<path fill="#FFFFFF" stroke="#FFFFFF" stroke-width="0.5669" stroke-linejoin="round" stroke-miterlimit="5" d="M37.129,43.512
		c0.28,0.018,0.421,0.127,0.421,0.328c0,0.219-0.131,0.337-0.394,0.354c-1.031,0.271-1.945,0.866-2.741,1.785
		c-0.678,0.805-1.063,1.715-1.153,2.73c0,0.735,0.231,1.313,0.692,1.732c0.371,0.28,0.729,0.442,1.072,0.485
		c0.235,0.053,0.353,0.127,0.353,0.223c0.045,0.779,0.127,1.453,0.245,2.021c0.09,0.428,0.199,0.822,0.326,1.181
		c0.108,0.245,0.163,0.428,0.163,0.551c0,0.21-0.104,0.315-0.312,0.315c-0.208,0-0.349-0.123-0.421-0.368
		c-0.199-0.516-0.357-1.067-0.475-1.654c-0.118-0.673-0.177-1.208-0.177-1.601c-1.457-0.367-2.185-1.334-2.185-2.9
		c0-1.155,0.552-2.345,1.656-3.57c0.561-0.499,1.108-0.906,1.642-1.221C36.474,43.643,36.903,43.512,37.129,43.512z M42.083,48.486
		c0.624,0,1.28,0.061,1.967,0.184c0.416,0.035,0.625,0.171,0.625,0.407c-0.009,0.175-0.104,0.271-0.285,0.289
		c-0.154,0-0.43-0.035-0.828-0.105c-0.498-0.07-0.986-0.105-1.466-0.105c-0.353,0-0.728,0.009-1.126,0.026
		c-0.344,0.026-0.697,0.07-1.059,0.131c-0.027,0-0.05-0.004-0.068-0.013c-0.009,0.236-0.014,0.468-0.014,0.696
		c0,0.7,0.014,1.33,0.041,1.89c0.172,0.044,0.407,0.088,0.706,0.131c0.38,0.079,0.941,0.118,1.683,0.118
		c0.633,0,1.113-0.03,1.438-0.092c0.344-0.07,0.556-0.127,0.638-0.17c0.235,0,0.353,0.105,0.353,0.315
		c0,0.236-0.118,0.363-0.353,0.38c-0.281,0.131-0.973,0.21-2.076,0.236c-1.077,0-1.859-0.083-2.348-0.25
		c0.009,0.053,0.014,0.101,0.014,0.145c0.054,0.499,0.126,0.984,0.217,1.457c0.136,0.402,0.204,0.665,0.204,0.788
		c0,0.245-0.113,0.368-0.339,0.368c-0.208,0-0.353-0.14-0.435-0.42c-0.298-1.015-0.448-2.621-0.448-4.817
		c0-0.84,0.032-1.693,0.095-2.559c0.082-0.814,0.149-1.356,0.204-1.627c-0.172,0.018-0.331,0.039-0.475,0.065
		c-0.226,0.035-0.439,0.075-0.638,0.118h-0.014c-0.018,0.035-0.036,0.066-0.054,0.092c-0.398,0.674-0.706,1.348-0.923,2.021
		c-0.018,0.28-0.131,0.42-0.339,0.42c-0.271,0-0.407-0.131-0.407-0.394c0-0.175,0.122-0.573,0.366-1.194
		c0.262-0.56,0.565-1.102,0.909-1.627c0.461-0.665,0.855-1.172,1.181-1.522c0.316-0.341,0.583-0.512,0.8-0.512
		c0.217,0.062,0.326,0.162,0.326,0.302c0,0.088-0.041,0.175-0.122,0.263c-0.108,0.131-0.24,0.267-0.394,0.407
		c-0.28,0.298-0.542,0.613-0.787,0.945c0.208-0.026,0.443-0.053,0.706-0.079c0.724-0.052,1.46-0.079,2.211-0.079
		c0.525,0.009,1.013,0.026,1.466,0.052c0.561,0.035,0.968,0.075,1.221,0.118c0.308,0.053,0.461,0.188,0.461,0.407
		s-0.118,0.328-0.353,0.328c-0.045,0-0.167-0.018-0.366-0.053c-0.281-0.043-0.606-0.079-0.977-0.105
		c-0.443-0.035-0.909-0.057-1.397-0.065c-0.516,0-1.054,0.013-1.615,0.039v0.04c-0.172,0.612-0.285,1.536-0.339,2.769
		c0.082-0.026,0.167-0.043,0.258-0.052C40.662,48.521,41.313,48.486,42.083,48.486z"/>
	<path fill="#FFFFFF" stroke="#FFFFFF" stroke-width="0.5669" stroke-linejoin="round" stroke-miterlimit="5" d="M55.096,46.019
		c0-0.096,0.004-0.188,0.014-0.276c0.09-0.849,0.19-1.553,0.298-2.113c0.09-0.192,0.204-0.306,0.339-0.341
		c0.262,0,0.402,0.105,0.42,0.315c0,0.061-0.014,0.14-0.041,0.236c-0.027,0.175-0.063,0.367-0.108,0.577
		c-0.055,0.412-0.113,0.906-0.177,1.483c0,0.044-0.004,0.083-0.014,0.118c0.127,0.009,0.258,0.022,0.394,0.039
		c0.271,0.026,0.538,0.066,0.801,0.118c0.416,0.079,0.624,0.228,0.624,0.446s-0.122,0.328-0.366,0.328
		c-0.479-0.131-0.986-0.206-1.52-0.223c-0.036,0.569-0.054,1.116-0.054,1.641c0,1.138,0.032,2.301,0.095,3.491
		c0.082,0.875,0.131,1.435,0.149,1.68c0.38-0.044,0.732-0.127,1.058-0.25c0.253,0,0.38,0.123,0.38,0.368
		c0,0.192-0.1,0.306-0.298,0.341c-0.335,0.157-0.882,0.236-1.642,0.236c-0.814,0-1.425-0.101-1.832-0.302
		c-0.181-0.053-0.29-0.175-0.326-0.368c0-0.219,0.126-0.328,0.38-0.328c0.47,0.166,0.981,0.267,1.533,0.302
		c-0.136-1.172-0.212-2.83-0.23-4.974c0.009-0.63,0.036-1.242,0.081-1.837c-0.516,0.018-0.986,0.075-1.411,0.17
		c-0.226,0-0.357-0.109-0.394-0.328c0-0.201,0.149-0.341,0.448-0.42c0.217-0.043,0.521-0.079,0.909-0.105
		C54.788,46.027,54.951,46.019,55.096,46.019z M61.663,45.218c0.489,0,1.077,0.018,1.764,0.053c0.534,0.035,1.067,0.087,1.601,0.157
		c0.425,0.062,0.638,0.21,0.638,0.446c0,0.201-0.118,0.302-0.353,0.302c-1.131-0.166-2.33-0.25-3.596-0.25h-0.366
		c-0.027,0.114-0.1,0.236-0.217,0.368c-0.181,0.228-0.42,0.639-0.719,1.234c-0.072,0.166-0.14,0.341-0.203,0.525
		c0.09-0.061,0.208-0.127,0.353-0.197c0.47-0.149,1.018-0.223,1.642-0.223c1.085,0,1.895,0.302,2.429,0.905
		c0.552,0.595,0.828,1.505,0.828,2.73c0,1.234-0.217,2.244-0.651,3.032c-0.163,0.324-0.357,0.591-0.583,0.801
		c-0.19,0.192-0.398,0.289-0.624,0.289c-0.199,0-0.308-0.096-0.326-0.289c0-0.131,0.068-0.25,0.204-0.354
		c0.371-0.324,0.683-0.783,0.937-1.378c0.253-0.647,0.38-1.339,0.38-2.074c0-0.998-0.227-1.75-0.679-2.257
		c-0.425-0.507-1.063-0.761-1.913-0.761c-0.398,0.026-0.801,0.092-1.208,0.197c-0.334,0.114-0.565,0.17-0.692,0.17
		c-0.127,0-0.208-0.048-0.244-0.144c-0.118,0.376-0.23,0.766-0.339,1.168c-0.371,1.461-0.556,2.905-0.556,4.331
		c0,0.28-0.109,0.42-0.326,0.42c-0.271,0-0.407-0.214-0.407-0.643c0-1.339,0.19-2.787,0.57-4.344c0.398-1.47,0.9-2.625,1.506-3.465
		c-0.76,0.035-1.47,0.114-2.13,0.236c-0.217,0-0.344-0.101-0.38-0.302c0-0.219,0.145-0.363,0.434-0.433
		c0.434-0.079,1.027-0.145,1.778-0.197C60.736,45.235,61.22,45.218,61.663,45.218z M61.962,43.17c0.66,0.052,0.99,0.363,0.99,0.932
		c0,0.604-0.321,0.906-0.963,0.906c-0.57-0.018-0.896-0.319-0.977-0.906C61.057,43.534,61.374,43.223,61.962,43.17z M61.989,44.378
		c0.226,0,0.339-0.101,0.339-0.302c0-0.184-0.122-0.293-0.366-0.328c-0.19,0.035-0.299,0.144-0.326,0.328
		C61.663,44.277,61.781,44.378,61.989,44.378z"/>
</g>
<path fill-rule="evenodd" clip-rule="evenodd" fill="none" stroke="#FFFFFF" stroke-width="1.4173" stroke-linejoin="round" stroke-miterlimit="22.9256" d="
	M12.653,41.798h9.908c1.466,0,2.665,1.199,2.665,2.665v9.908c0,1.466-1.199,2.665-2.665,2.665h-9.908
	c-1.466,0-2.665-1.199-2.665-2.665v-9.908C9.988,42.997,11.187,41.798,12.653,41.798z"/>
<path fill-rule="evenodd" clip-rule="evenodd" fill="none" stroke="#FFFFFF" stroke-width="1.4173" stroke-linejoin="round" stroke-miterlimit="22.9256" d="
	M33.415,41.798h9.908c1.466,0,2.665,1.199,2.665,2.665v9.908c0,1.466-1.199,2.665-2.665,2.665h-9.908
	c-1.466,0-2.665-1.199-2.665-2.665v-9.908C30.75,42.997,31.949,41.798,33.415,41.798z"/>
<path fill-rule="evenodd" clip-rule="evenodd" fill="none" stroke="#FFFFFF" stroke-width="1.4173" stroke-linejoin="round" stroke-miterlimit="22.9256" d="
	M54.177,41.798h9.909c1.466,0,2.665,1.199,2.665,2.665v9.908c0,1.466-1.199,2.665-2.665,2.665h-9.909
	c-1.465,0-2.665-1.199-2.665-2.665v-9.908C51.513,42.997,52.712,41.798,54.177,41.798z"/>
<g>
</g>
<g>
</g>
<g>
</g>
<g>
</g>
<g>
</g>
<g>
</g>
</svg>
